<?xml version="1.0" encoding="UTF-8" standalone="no"?>
<!-- Created with Inkscape (http://www.inkscape.org/) -->

<svg
   width="32"
   height="32"
   viewBox="0 0 32 32"
   version="1.1"
   id="svg1"
   sodipodi:docname="Logo.svg"
   xml:space="preserve"
   inkscape:version="1.3 (0e150ed, 2023-07-21)"
   inkscape:export-filename="Logo.png"
   inkscape:export-xdpi="96"
   inkscape:export-ydpi="96"
   xmlns:inkscape="http://www.inkscape.org/namespaces/inkscape"
   xmlns:sodipodi="http://sodipodi.sourceforge.net/DTD/sodipodi-0.dtd"
   xmlns="http://www.w3.org/2000/svg"
   xmlns:svg="http://www.w3.org/2000/svg"><sodipodi:namedview
     id="namedview1"
     pagecolor="#505050"
     bordercolor="#eeeeee"
     borderopacity="1"
     inkscape:showpageshadow="0"
     inkscape:pageopacity="0"
     inkscape:pagecheckerboard="0"
     inkscape:deskcolor="#d1d1d1"
     inkscape:document-units="px"
     inkscape:zoom="14.243669"
     inkscape:cx="13.830707"
     inkscape:cy="14.778496"
     inkscape:window-width="1328"
     inkscape:window-height="858"
     inkscape:window-x="15"
     inkscape:window-y="59"
     inkscape:window-maximized="0"
     inkscape:current-layer="layer1" /><defs
     id="defs1"><linearGradient
       id="swatch1"
       inkscape:swatch="solid"><stop
         style="stop-color:#000000;stop-opacity:1;"
         offset="0"
         id="stop1" /></linearGradient></defs><g
     inkscape:label="Layer 1"
     inkscape:groupmode="layer"
     id="layer1"><path
       style="fill:#800080;fill-opacity:1;stroke:#000000;stroke-width:0.0313076;stroke-opacity:1"
       d="m 15.653564,30.596194 c -0.844552,-0.09804 -1.68001,-0.411788 -2.321341,-0.979732 -0.836044,-0.538249 -1.246065,-1.501092 -1.66843,-2.361798 -0.301432,-0.648466 -0.432116,-1.367834 -0.491803,-2.075571 0.02812,-1.204936 0.505293,-2.40096 1.054324,-3.504181 0.08357,-0.2096 0.835915,-1.607273 1.109758,-1.438898 0.309978,-0.857884 0.636031,-1.65527 1.533272,-2.343326 0.568691,-0.710353 1.522195,-0.813336 1.996954,-0.205582 0.747008,1.437355 2.386237,1.648259 1.951692,2.92999 -0.205791,0.607 1.256308,1.955938 1.416589,2.620035 0.285827,1.184282 0.541444,2.520111 0.230571,3.710735 -0.167659,0.398911 -0.360829,0.793957 -0.591687,1.148772 -0.293438,0.325778 -0.473442,0.750831 -0.800749,1.057398 -0.677422,0.734823 -1.580677,1.316285 -2.595044,1.408004 -0.276697,0.03466 -0.546401,0.09384 -0.824106,0.03416 z"
       id="path6"
       sodipodi:nodetypes="csssscsssssssccc" /><path
       style="fill:#008000;fill-opacity:1;stroke:#000000;stroke-width:0.0323516;stroke-opacity:1"
       d="M 15.693929,21.559116 C 14.125052,21.576483 12.526806,21.329018 11.123367,20.596762 9.89482,20.047627 8.6627643,19.235476 8.1553822,17.930296 8.027598,17.686492 7.9312438,17.435347 7.9590963,17.155189 c -0.092953,-0.562549 0.088103,-1.099421 0.3388272,-1.59545 0.2378227,-0.64827 0.7943987,-1.112784 1.3463231,-1.49634 0.5776794,-0.500843 1.7235964,-0.937981 2.4202754,-1.233864 0.247339,0.03636 0.635379,0.05943 0.387788,0.531811 -2.5013788,2.761991 0.566437,4.598631 3.335566,4.869458 2.268696,-0.123278 5.671453,-1.12825 3.760926,-4.897567 -0.18194,-0.358955 0.241566,-0.335384 0.437188,-0.522247 0.65341,0.286162 1.467529,0.651849 2.038899,1.085089 0.462189,0.325913 0.977956,0.600477 1.271619,1.104605 0.323049,0.422775 0.54222,0.847849 0.666442,1.330311 0.194132,0.604094 0.0061,1.309587 -0.276285,1.873433 -0.391582,0.464764 -0.644158,1.095346 -1.197493,1.387063 -0.364356,0.462701 -0.976711,0.642505 -1.483931,0.914137 -0.537055,0.184093 -1.011689,0.580904 -1.580002,0.634559 -1.14884,0.28368 -2.332149,0.506677 -3.51992,0.423309 l -0.10431,-0.0022 -0.107065,-0.0022 z"
       id="path8"
       sodipodi:nodetypes="cccccccscscccccccccccc" /><path
       style="display:inline;fill:#800080;fill-opacity:1;stroke:#000000;stroke-width:0.0317883;stroke-dasharray:none;stroke-opacity:1"
       d="m 16.770003,16.515452 c -0.531534,0.782542 -1.225259,0.177197 -1.521909,-0.08689 -0.296651,-0.264082 -0.431951,-0.443745 -0.654066,-0.633131 -0.695224,-0.531749 -1.335856,-1.140808 -1.788946,-1.896572 -0.752927,-0.982419 -1.284327,-2.117105 -1.682524,-3.28346 -0.28982,-1.079106 -0.397329,-2.2254293 -0.3275,-3.3448823 0.108359,-0.6161117 0.11013,-1.2610279 0.383734,-1.8353456 0.231569,-0.5704835 0.363606,-1.1873864 0.747604,-1.6812464 0.31306,-0.5967597 0.835158,-1.0589504 1.346333,-1.4835946 0.721192,-0.4437215 1.537295,-0.7536543 2.36989,-0.8937472 0.670498,-0.050879 1.32766,0.1015052 1.960156,0.3109046 0.637433,0.2197314 1.211494,0.6509209 1.666493,1.1494764 0.710345,0.733209 1.256171,1.6148642 1.542959,2.5974479 0.369216,1.2261333 0.238664,2.5258478 0.264655,3.7917687 -0.143595,0.7021149 -0.181865,1.4421385 -0.556227,2.0723235 -0.147419,0.524025 -0.399281,1.072689 -0.5997,1.548213 -0.40791,0.443946 -0.640133,1.053661 -1.076189,1.488809 -0.483141,0.628697 -1.038563,1.187065 -1.624797,1.711082 -1.025824,1.145539 -0.216829,0.125607 -0.449966,0.46884 z"
       id="path4"
       sodipodi:nodetypes="ssccccccccccccccccs" /></g></svg>
